/* XPM */
static char * applicationIcon_xpm[] = {
"32 32 80 1",
" 	c None",
".	c #444444",
"+	c #888888",
"@	c #7F7F7F",
"#	c #FFFFFF",
"$	c #333333",
"%	c #FCFCFC",
"&	c #5B5B5B",
"*	c #4D4D4D",
"=	c #676767",
"-	c #2F2F2F",
";	c #FEFEFE",
">	c #6E6E6E",
",	c #454545",
"'	c #3E3E3E",
")	c #B0B0B0",
"!	c #CFCFCF",
"~	c #353535",
"{	c #646464",
"]	c #8D8D8D",
"^	c #AAAAAA",
"/	c #707070",
"(	c #D8D8D8",
"_	c #1C1C1C",
":	c #AFAFAF",
"<	c #696969",
"[	c #F7F7F7",
"}	c #838383",
"|	c #A4A4A4",
"1	c #2B2B2B",
"2	c #848484",
"3	c #3C3C3C",
"4	c #5F5F5F",
"5	c #3B3B3B",
"6	c #F4F4F4",
"7	c #5E5E5E",
"8	c #A9A9A9",
"9	c #7E7E7E",
"0	c #E6E6E6",
"a	c #1D1D1D",
"b	c #AEAEAE",
"c	c #6C6C6C",
"d	c #FBFBFB",
"e	c #606060",
"f	c #2C2C2C",
"g	c #737373",
"h	c #464646",
"i	c #545454",
"j	c #686868",
"k	c #D7D7D7",
"l	c #575757",
"m	c #FDFDFD",
"n	c #EFEFEF",
"o	c #494949",
"p	c #4C4C4C",
"q	c #393939",
"r	c #434343",
"s	c #535353",
"t	c #4E4E4E",
"u	c #BBBBBB",
"v	c #636363",
"w	c #909090",
"x	c #8F8F8F",
"y	c #5A5A5A",
"z	c #555555",
"A	c #EDEDED",
"B	c #3F3F3F",
"C	c #757575",
"D	c #979797",
"E	c #C1C1C1",
"F	c #4B4B4B",
"G	c #505050",
"H	c #CACACA",
"I	c #484848",
"J	c #727272",
"K	c #6A6A6A",
"L	c #9E9E9E",
"M	c #585858",
"N	c #F8F8F8",
"O	c #777777",
"                                ",
" .++++++++++++++++++++++++++++. ",
" @############################@ ",
" @#####$######################@ ",
" @#####$##########%###########@ ",
" @#%&*=-#;>,')#!~{]###########@ ",
" @#^/#(_#:<#[-;!$#############@ ",
" @#}|##1#234456!7#############@ ",
" @#89#0a#bc##;#!4#############@ ",
" @#dec>f#;ghij#!4#############@ ",
" @############################@ ",
" @############################@ ",
" @##########$#kl##############@ ",
" @##########$##m##############@ ",
" @######%&*=-#kl#;>,')########@ ",
" @######^/#(_#kl#:<#[-;#######@ ",
" @######}|##1#kl#234456#######@ ",
" @######89#0a#kl#bc##;########@ ",
" @######dec>f#kl#;ghij########@ ",
" @############################@ ",
" @############################@ ",
" @###############$############@ ",
" @###############$############@ ",
" @###########%&*=-#nopq(#(rst#@ ",
" @###########^/#(_#%%#uv#wx###@ ",
" @###########}|##1#n=yzp#A<BCm@ ",
" @###########89#0a#Dx#EF#d##GH@ ",
" @###########dec>f#(IJKF#L*sMN@ ",
" @############################@ ",
" @############################@ ",
" 5OOOOOOOOOOOOOOOOOOOOOOOOOOOO5 ",
"                                "};
